<?xml version="1.0" standalone="no"?>
<!DOCTYPE svg PUBLIC "-//W3C//DTD SVG 20010904//EN"
 "http://www.w3.org/TR/2001/REC-SVG-20010904/DTD/svg10.dtd">
<svg version="1.0" xmlns="http://www.w3.org/2000/svg"
 width="700.000000pt" height="700.000000pt" viewBox="0 0 700.000000 700.000000"
 preserveAspectRatio="xMidYMid meet">
<metadata>
Created by potrace 1.14, written by Peter Selinger 2001-2017
</metadata>
<g transform="translate(0.000000,700.000000) scale(0.100000,-0.100000)"
fill="#000000" stroke="none">
<path d="M3280 6994 c-19 -2 -87 -9 -150 -15 -63 -6 -176 -22 -250 -35 -572
-105 -1076 -331 -1540 -690 -149 -115 -481 -446 -595 -594 -410 -532 -653
-1132 -727 -1795 -17 -155 -17 -575 0 -730 52 -469 197 -931 418 -1327 288
-519 734 -985 1234 -1291 156 -95 298 -168 455 -235 697 -296 1471 -360 2200
-182 624 153 1158 449 1614 895 596 583 944 1296 1043 2140 7 62 13 220 13
365 0 145 -6 303 -13 365 -99 844 -446 1555 -1043 2141 -552 540 -1244 871
-2029 970 -110 14 -556 27 -630 18z m660 -99 c538 -75 1006 -250 1445 -540
794 -525 1333 -1352 1490 -2288 77 -464 58 -942 -56 -1400 -215 -856 -749
-1591 -1506 -2070 -146 -93 -479 -256 -638 -312 -233 -84 -487 -146 -735 -180
-161 -22 -544 -31 -722 -16 -1424 120 -2621 1106 -3012 2481 -79 280 -115 521
-123 837 -11 435 39 778 172 1180 367 1102 1283 1951 2414 2233 140 35 370 75
511 89 143 14 623 6 760 -14z"/>
<path d="M2573 5840 c-359 -50 -646 -320 -719 -677 -24 -117 -15 -301 21 -413
109 -343 406 -576 760 -597 415 -24 779 248 876 654 18 74 20 110 17 223 -4
117 -9 147 -36 230 -52 156 -149 298 -274 399 -79 64 -220 135 -319 160 -92
23 -240 33 -326 21z"/>
<path d="M4233 5774 c-155 -34 -314 -125 -430 -247 -369 -389 -287 -1016 170
-1301 149 -93 310 -133 495 -123 176 9 321 63 468 172 154 115 272 303 315
500 20 94 15 285 -10 380 -79 302 -324 544 -621 615 -101 24 -289 26 -387 4z"/>
<path d="M1746 3594 c-19 -18 -19 -20 -6 -45 17 -31 70 -18 70 17 0 14 -27 44
-40 44 -5 0 -16 -7 -24 -16z"/>
<path d="M5202 3498 c-18 -18 -14 -46 7 -58 11 -5 22 -10 25 -10 8 0 36 31 36
40 0 13 -30 40 -44 40 -6 0 -17 -5 -24 -12z"/>
<path d="M2500 2910 c-333 -40 -600 -257 -712 -580 -32 -92 -33 -99 -33 -260
0 -145 3 -174 23 -240 49 -153 123 -271 240 -381 158 -147 319 -215 537 -226
385 -19 723 215 847 587 30 90 32 103 32 250 1 180 -11 234 -79 376 -101 208
-273 361 -490 433 -78 26 -237 54 -285 50 -8 -1 -44 -5 -80 -9z"/>
<path d="M4195 2843 c-290 -40 -556 -250 -669 -529 -68 -167 -75 -401 -17
-574 94 -281 313 -485 603 -562 114 -30 298 -30 412 1 283 75 503 282 596 559
42 126 53 299 25 433 -80 398 -436 685 -840 677 -44 0 -93 -3 -110 -5z"/>
</g>
</svg>
