<?xml version="1.0" encoding="UTF-8"?>
<svg id="Layer_2" data-name="Layer 2" xmlns="http://www.w3.org/2000/svg" viewBox="0 0 101.28 76.41">
  <g id="Layer_1-2" data-name="Layer 1">
    <path d="m101.28,0c-11.65,25.69-23.06,50.88-34.64,76.41-7.09-5.62-14-11.11-21.17-16.8-3.03,4.32-6.04,8.59-9.04,12.86-.12-.02-.25-.04-.37-.06,0-.51-.05-1.03,0-1.54.73-6.72,1.44-13.44,2.27-20.14.1-.78.78-1.63,1.42-2.17,11.84-9.85,23.71-19.66,35.57-29.48.42-.35.83-.73,1.07-1.35-.39.15-.81.27-1.17.46-13.71,7.36-27.4,14.75-41.14,22.06-1.39.74-2,1.52-1.91,3.16.25,4.17.3,8.36.42,12.54.01.38,0,.76-.36,1.27-.26-.51-.56-1-.78-1.53-2.03-4.86-4.07-9.71-6.04-14.59-.54-1.35-1.36-2.24-2.67-2.93-7.28-3.85-14.51-7.8-21.76-11.72-.34-.18-.66-.41-1.01-1.07C33.59,16.97,67.17,8.55,101.28,0Z" style="stroke-width: 0px;"/>
  </g>
</svg>