<?xml version="1.0" encoding="UTF-8"?>
<svg id="Layer_2" data-name="Layer 2" xmlns="http://www.w3.org/2000/svg" viewBox="0 0 101.35 80.31">
  <g id="Layer_1-2" data-name="Layer 1">
    <g>
      <path d="m.03,0h101.2v17.48h-1.29c-32.83,0-65.66,0-98.49.02-1.12,0-1.46-.28-1.44-1.42C.06,11.15.03,6.22.03,1.3V0Z" style="stroke-width: 0px;"/>
      <path d="m.1,80.31c-.03-.41-.07-.75-.07-1.09,0-5.05.02-10.09-.02-15.14,0-.97.27-1.26,1.25-1.26,32.95.02,65.9.02,98.84.01.74,0,1.26,0,1.25,1.02-.04,5.24-.02,10.48-.02,15.73,0,.22-.06.45-.11.73H.1Z" style="stroke-width: 0px;"/>
      <path d="m.1,30.9h101.14v17.4H.1v-17.4Z" style="stroke-width: 0px;"/>
    </g>
  </g>
</svg>