<?xml version="1.0" encoding="utf-8"?>
<!-- Generator: Adobe Illustrator 27.8.0, SVG Export Plug-In . SVG Version: 6.00 Build 0)  -->
<svg version="1.1" id="Layer_2_00000127730521402903061410000018381254841359392399_"
	 xmlns="http://www.w3.org/2000/svg" xmlns:xlink="http://www.w3.org/1999/xlink" x="0px" y="0px" viewBox="0 0 101.3 80.3"
	 style="enable-background:new 0 0 101.3 80.3;" xml:space="preserve">
<g id="Layer_1-2">
	<g>
		<path d="M5.7,9.4h89.9v10h-1.1c-29.2,0-58.3,0-87.5,0c-1,0-1.3-0.2-1.3-0.8c0-2.8,0-5.6,0-8.4V9.4z"/>
		<path d="M5.8,70.9c0-0.2-0.1-0.4-0.1-0.6c0-2.9,0-5.8,0-8.7c0-0.6,0.2-0.7,1.1-0.7c29.3,0,58.5,0,87.8,0c0.7,0,1.1,0,1.1,0.6
			c0,3,0,6,0,9c0,0.1-0.1,0.3-0.1,0.4C95.6,70.9,5.8,70.9,5.8,70.9z"/>
		<path d="M5.8,34.5h89.8v10H5.8V34.5z"/>
	</g>
</g>
</svg>
