<?xml version="1.0" encoding="UTF-8"?>
<svg id="Layer_2" data-name="Layer 2" xmlns="http://www.w3.org/2000/svg" viewBox="0 0 53.03 86.89">
  <g id="Layer_1-2" data-name="Layer 1">
    <g>
      <path d="m0,.08C.52.06.96.02,1.39.02,7.84.02,14.29.04,20.74,0c1.24,0,1.61.23,1.61,1.07-.03,28.25-.03,56.5-.01,84.75,0,.63,0,1.08-1.3,1.07-6.7-.04-13.4-.02-20.1-.02-.29,0-.57-.05-.94-.09V.08Z" style="stroke-width: 0px;"/>
      <path d="m30.69.08c.52-.02.96-.06,1.39-.06,6.45,0,12.9.02,19.35-.02,1.24,0,1.61.23,1.61,1.07-.03,28.25-.03,56.5-.01,84.75,0,.63,0,1.08-1.3,1.07-6.7-.04-13.4-.02-20.1-.02-.29,0-.57-.05-.94-.09V.08Z" style="stroke-width: 0px;"/>
    </g>
  </g>
</svg>