<?xml version="1.0" encoding="UTF-8"?>
<svg id="Layer_2" data-name="Layer 2" xmlns="http://www.w3.org/2000/svg" viewBox="0 0 76.44 87.29">
  <g id="Layer_1-2" data-name="Layer 1">
    <path d="m0,43.73c0-13.39,0-26.77,0-40.16C0-.26,1.13-.88,4.52,1.08c22.96,13.26,45.92,26.53,68.87,39.8.29.17.57.35.85.52,2.9,1.76,2.93,3.08.06,4.76-4.66,2.73-9.34,5.44-14.01,8.14-18.56,10.73-37.11,21.48-55.7,32.15-1.04.6-2.62,1.07-3.59.69-.66-.26-.95-2.12-.95-3.27C-.02,70.5,0,57.11,0,43.73Z" style="stroke-width: 0px;"/>
  </g>
</svg>