<?xml version="1.0" encoding="UTF-8"?>
<svg id="Layer_2" data-name="Layer 2" xmlns="http://www.w3.org/2000/svg" viewBox="0 0 192.03 195.46">
  <g id="Layer_1-2" data-name="Layer 1">
    <path d="m134.21,125.69c19.3,19.06,38.62,38.15,57.82,57.12-4.81,4.59-8.94,8.52-13.26,12.64-18.66-18.84-38-38.38-57.57-58.14-21.38,14.47-43.99,18.39-68.12,11.01-17.81-5.45-31.53-16.51-41.53-32.19C-8.09,85.35-2.16,43.92,25.41,19.27c27.69-24.75,69.29-25.65,98.19-2.78,27.84,22.03,41.93,69.86,10.61,109.19ZM76.05,8.75c-37.09-.02-67.14,29.85-67.21,66.81-.07,37.36,29.67,67.4,66.94,67.6,37.15.2,67.41-29.89,67.45-67.09.04-37.34-29.86-67.3-67.18-67.32Z" style="stroke-width: 0px;"/>
  </g>
</svg>